<svg xmlns="http://www.w3.org/2000/svg" width="470.3" height="514.3"><path fill="#2d374b" d="m291.1 237.5 35.7-60.5 96 149.7.1 28.7-.3-197.7c-.2-4.8-2.8-9.2-6.9-11.9l-173-99.5a15 15 0 0 0-14.8 1l-.6.4L59.4 145l-.7.3a15 15 0 0 0-8.4 10.9l-.2 1.7.2 161.1L140 180.3c11.2-18.4 35.8-24.4 58.6-24l26.7.7L67.6 409.8l18.6 10.7 159.5-263.3 70.5-.2-159.1 269.8 66.3 38.2 8 4.5c3.3 1.4 7.2 1.5 10.6.3L417.5 368l-33.6 19.4zm13.6 195.9-67-105.1 41-69.4 87.9 138.6z"/><path fill="#28a0f0" d="m237.8 328.3 67 105 61.8-35.8-88-138.6zM423 355.4l-.1-28.7L326.8 177 291 237.5l92.8 150 33.6-19.4c3.2-2.7 5.2-6.6 5.4-10.9z"/><path fill="#fff" d="m20.2 382.5 47.4 27.3L225.2 157l-26.7-.7c-22.8-.4-47.4 5.6-58.7 24L50.3 319l-30 46.3zM316.2 157l-70.5.2L86.2 420.5l55.7 32 15.2-25.7z"/><path fill="#96bedc" d="M452.7 156.6a45 45 0 0 0-21.1-36.1L256.3 19.7a46 46 0 0 0-40.2 0c-1.5.7-170.5 98.7-170.5 98.7a45 45 0 0 0-25.4 38.1v208.8L50.3 319l-.2-161q0-1 .2-1.8 1.1-5.9 6-9.5L229.5 46.4c4-2 9.2-2 13.2 0l173 99.4c4.1 2.7 6.7 7 7 12v199.4c-.3 4.3-2 8.2-5.2 10.9l-33.6 19.4-17.3 10-61.9 35.9-62.7 36.4a15 15 0 0 1-10.7-.3l-74.2-42.7-15.2 25.8 66.7 38.4 10.6 5.9a44.6 44.6 0 0 0 34 .6l182.3-105.6a45 45 0 0 0 17.1-33.6z"/></svg>