<svg xmlns="http://www.w3.org/2000/svg" viewBox="0 0 32 32" fill="none">
  <circle cx="16" cy="16" r="16" fill="#F7931A"/>
  <path d="M22.5 13.5c.3-2-1.2-3-3.3-3.7l.7-2.7-1.7-.4-.7 2.7c-.4-.1-.9-.2-1.4-.3l.7-2.7-1.7-.4-.7 2.7c-.4-.1-.7-.2-1-.2l-2.3-.6-.4 1.8s1.2.3 1.2.3c.7.2.8.6.8.9l-2 7.9c-.1.2-.4.5-.9.4 0 0-1.2-.3-1.2-.3l-.8 2 2.2.6c.4.1.8.2 1.2.3l-.7 2.7 1.7.4.7-2.7c.5.1 1 .3 1.4.4l-.7 2.7 1.7.4.7-2.7c2.9.5 5 .3 5.9-2.3.7-2-.1-3.2-1.5-3.9 1.1-.3 1.9-1 2.1-2.4zm-3.7 5.2c-.5 2-3.9 1-5 .7l.9-3.5c1.1.3 4.6.8 4.1 2.8zm.5-5.2c-.5 1.8-3.3 1-4.2.7l.8-3.1c.9.2 3.9.7 3.4 2.4z" fill="white"/>
</svg>
